<?xml version="1.0" encoding="utf-8"?>
<!-- Generator: Adobe Illustrator 22.0.1, SVG Export Plug-In . SVG Version: 6.00 Build 0)  -->
<svg version="1.1" id="Слой_1" xmlns="http://www.w3.org/2000/svg" xmlns:xlink="http://www.w3.org/1999/xlink" x="0px" y="0px"
	 viewBox="0 0 147 71.2" style="enable-background:new 0 0 147 71.2;" xml:space="preserve">
<style type="text/css">
	.st0{fill:#40455E;}
	.st1{fill:#FFFFFF;}
</style>
<path class="st0" d="M140.2,70.6H7.3c-3.1,0-5.6-2.5-5.6-5.6V7c0-3.1,2.5-5.6,5.6-5.6h132.9c3.1,0,5.6,2.5,5.6,5.6v58
	C145.8,68.1,143.3,70.6,140.2,70.6z"/>
<g>
	<path class="st1" d="M25.7,28.3l-7,0l0-4.7l19,0l0,4.7l-7,0l0,18.3l-5,0L25.7,28.3z"/>
	<path class="st1" d="M34.6,37.9c0-5,4.1-9.1,9.5-9.1c5.4,0,9.5,4,9.5,9.1c0,5-4.1,9.1-9.5,9.1C38.6,47,34.6,43,34.6,37.9z
		 M48.7,37.9c0-2.6-1.9-4.9-4.6-4.9c-2.9,0-4.6,2.2-4.6,4.9c0,2.6,1.9,4.9,4.6,4.9C47,42.7,48.7,40.5,48.7,37.9z"/>
	<path class="st1" d="M55.1,22.7l5,0l0,12.8l5.8-6.4l6,0L65.2,36l6.9,10.7l-5.7,0l-4.6-7.2l-1.7,1.8l0,5.3l-5,0L55.1,22.7z"/>
	<path class="st1" d="M70.7,37.9c0-5,3.6-9.1,8.7-9.1c5.9,0,8.6,4.6,8.6,9.5c0,0.4,0,0.9-0.1,1.3l-12.2,0c0.5,2.3,2.1,3.4,4.3,3.4
		c1.7,0,2.9-0.5,4.3-1.8l2.9,2.5c-1.6,2-4,3.3-7.2,3.3C74.6,47,70.7,43.3,70.7,37.9z M83.1,36.5c-0.3-2.2-1.6-3.7-3.7-3.7
		c-2.1,0-3.4,1.5-3.8,3.7L83.1,36.5z"/>
	<path class="st1" d="M89.5,29.1l5,0l0,2.5c1.1-1.5,2.6-2.8,5.1-2.8c3.8,0,6,2.5,6,6.5l0,11.4l-5,0l0-9.8c0-2.4-1.1-3.6-3-3.6
		c-1.9,0-3.1,1.2-3.1,3.6l0,9.8l-5,0L89.5,29.1z"/>
	<path class="st1" d="M108.3,23.7l8.9,0c7.2,0,12.2,5,12.2,11.5c0,6.5-5,11.5-12.2,11.5l-8.9,0L108.3,23.7z M117.3,42.1
		c4.1,0,6.9-2.8,6.9-6.9c0-4.1-2.8-6.9-6.9-6.9l-3.9,0l0,13.8L117.3,42.1z"/>
</g>
<g>
</g>
<g>
</g>
<g>
</g>
<g>
</g>
<g>
</g>
<g>
</g>
</svg>
